<?xml version="1.0" encoding="utf-8"?>
<!-- Generator: Adobe Illustrator 16.0.0, SVG Export Plug-In . SVG Version: 6.00 Build 0)  -->
<!DOCTYPE svg PUBLIC "-//W3C//DTD SVG 1.1//EN" "http://www.w3.org/Graphics/SVG/1.1/DTD/svg11.dtd">
<svg version="1.1" id="Capa_1" xmlns="http://www.w3.org/2000/svg" xmlns:xlink="http://www.w3.org/1999/xlink" x="0px" y="0px"
	 width="960px" height="560px" viewBox="0 0 960 560" enable-background="new 0 0 960 560" xml:space="preserve">
<g>
	<path fill="#9F9F9F" d="M479.988,0C325.369,0,200,125.369,200,279.988C200,434.607,325.369,560,479.988,560
		S760,434.607,760,279.988C760,125.369,634.607,0,479.988,0z M538.275,433.943c-14.412,5.688-25.886,10.003-34.488,12.989
		c-8.581,2.986-18.562,4.479-29.914,4.479c-17.446,0-31.028-4.268-40.699-12.776c-9.672-8.51-14.482-19.295-14.482-32.401
		c0-5.098,0.354-10.312,1.065-15.621c0.735-5.311,1.896-11.283,3.484-17.991l18.039-63.716c1.588-6.115,2.963-11.924,4.053-17.327
		c1.091-5.452,1.612-10.453,1.612-15.004c0-8.106-1.685-13.795-5.025-16.996c-3.39-3.2-9.766-4.764-19.271-4.764
		c-4.646,0-9.435,0.687-14.341,2.133c-4.858,1.493-9.078,2.844-12.54,4.172l4.764-19.627c11.805-4.812,23.111-8.936,33.896-12.35
		c10.785-3.46,20.979-5.167,30.578-5.167c17.327,0,30.696,4.219,40.106,12.563c9.361,8.368,14.08,19.248,14.08,32.616
		c0,2.773-0.332,7.657-0.973,14.626c-0.641,6.992-1.85,13.367-3.604,19.223l-17.943,63.526c-1.47,5.097-2.772,10.928-3.959,17.445
		c-1.161,6.52-1.729,11.496-1.729,14.839c0,8.438,1.873,14.198,5.666,17.257c3.745,3.058,10.311,4.599,19.603,4.599
		c4.385,0,9.292-0.782,14.839-2.3c5.499-1.518,9.481-2.868,11.994-4.029L538.275,433.943z M535.1,176.095
		c-8.367,7.775-18.44,11.662-30.223,11.662c-11.757,0-21.902-3.887-30.341-11.662c-8.392-7.775-12.634-17.232-12.634-28.278
		c0-11.022,4.267-20.504,12.634-28.35c8.438-7.87,18.584-11.781,30.341-11.781c11.781,0,21.879,3.911,30.223,11.781
		c8.367,7.846,12.562,17.327,12.562,28.35C547.662,158.886,543.467,168.32,535.1,176.095z"/>
</g>
</svg>
