<svg xmlns="http://www.w3.org/2000/svg" width="108" height="28" viewBox="0 0 108 28"><path d="M44.183 10.645c-1.349 0-2.34.688-2.748 1.908-.203.663-.281 1.298-.281 2.47 0 1.169.078 1.829.281 2.491.407 1.22 1.399 1.908 2.748 1.908 1.348 0 2.34-.688 2.748-1.908.202-.662.279-1.322.279-2.491 0-1.171-.077-1.807-.279-2.47-.408-1.22-1.4-1.908-2.748-1.908zM85.313 10.645c-1.349 0-2.343.688-2.748 1.908-.204.663-.281 1.298-.281 2.47 0 1.169.077 1.829.281 2.491.405 1.22 1.399 1.908 2.748 1.908 1.347 0 2.338-.688 2.745-1.908.205-.662.281-1.322.281-2.491 0-1.171-.076-1.807-.281-2.47-.407-1.22-1.398-1.908-2.745-1.908z" fill="none"/><path fill="#333" d="M106.73 10.109c0-.338-.285-.6-.631-.6h-.685v2.007h.277v-.821h.304l.46.821h.325l-.48-.854c.249-.077.43-.257.43-.553zm-1.038.35v-.703h.375c.223 0 .378.152.378.353 0 .202-.155.35-.378.35h-.375zm.321-1.774c-1.013 0-1.831.818-1.831 1.832 0 1.009.818 1.829 1.831 1.829 1.012 0 1.83-.82 1.83-1.829 0-1.014-.819-1.832-1.83-1.832zm0 3.393c-.851 0-1.538-.703-1.538-1.562 0-.861.688-1.564 1.538-1.564.85 0 1.543.703 1.543 1.564 0 .859-.694 1.562-1.543 1.562zM30.193 5.812c.661 0 1.043-.407 1.043-.992 0-.584-.382-.992-1.119-.992h-.179c-2.543 0-3.765.967-3.765 3.892v1.067c0 .104-.051.154-.152.154h-.688c-.585 0-.915.357-.915.865s.33.863.915.863h.688c.102 0 .152.05.152.154v9.283c0 .713.458 1.145 1.067 1.145.612 0 1.07-.432 1.07-1.145v-9.283c0-.104.05-.154.152-.154h1.806c.584 0 .916-.355.916-.863s-.332-.865-.916-.865h-1.806c-.102 0-.152-.05-.152-.154v-1.194c.001-1.475.305-1.781 1.883-1.781zM37.136 19.268c-.84 0-1.169-.38-1.169-1.399v-13.023c0-.711-.458-1.144-1.07-1.144-.61 0-1.067.432-1.067 1.144v13.151c0 2.187.789 3.255 2.975 3.255h.23c.711 0 1.093-.407 1.093-.992s-.381-.992-.992-.992zM44.183 8.661c-2.366 0-4.147 1.197-4.808 3.282-.281.84-.407 1.68-.407 3.08 0 1.422.126 2.262.407 3.102.661 2.06 2.442 3.282 4.808 3.282s4.144-1.223 4.807-3.282c.279-.84.407-1.68.407-3.102 0-1.4-.128-2.24-.407-3.08-.663-2.085-2.441-3.282-4.807-3.282zm2.748 8.853c-.407 1.22-1.399 1.908-2.748 1.908-1.349 0-2.34-.688-2.748-1.908-.203-.662-.281-1.322-.281-2.491 0-1.171.078-1.807.281-2.47.407-1.22 1.399-1.908 2.748-1.908 1.348 0 2.34.688 2.748 1.908.202.663.279 1.298.279 2.47-.001 1.168-.077 1.829-.279 2.491zM56.012 10.645c1.093 0 1.753.407 2.312 1.017.28.306.56.511.941.511.533 0 .94-.407.94-.941 0-.281-.101-.511-.303-.79-.765-.992-2.062-1.781-3.892-1.781-2.343 0-4.122 1.171-4.81 3.282-.229.739-.38 1.73-.38 3.08 0 1.371.152 2.363.38 3.102.688 2.11 2.466 3.282 4.81 3.282 1.829 0 3.127-.789 3.892-1.781.202-.281.303-.51.303-.79 0-.534-.407-.941-.94-.941-.382 0-.661.205-.941.512-.56.609-1.22 1.017-2.312 1.017-1.324 0-2.315-.638-2.723-1.908-.204-.637-.28-1.398-.28-2.491 0-1.07.076-1.833.28-2.47.408-1.273 1.399-1.91 2.723-1.91zM67.989 13.494l2.824-3.077c.204-.23.306-.433.306-.713 0-.535-.407-.889-.891-.889-.331 0-.585.126-.814.379l-4.985 5.622v-9.97c0-.711-.457-1.144-1.067-1.144-.611 0-1.067.432-1.067 1.144v15.262c0 .713.456 1.145 1.067 1.145.61 0 1.067-.432 1.067-1.145v-2.696l2.137-2.389 3.436 5.62c.253.407.584.609.992.609.584 0 1.015-.432 1.015-.967 0-.228-.049-.431-.178-.635l-3.842-6.156zM76.562 10.67h1.604c.584 0 .914-.355.914-.863s-.33-.865-.914-.865h-1.604c-.101 0-.151-.05-.151-.154v-2.67c0-.713-.458-1.146-1.069-1.146s-1.069.433-1.069 1.146v2.669c0 .104-.05.154-.151.154h-.686c-.587 0-.917.357-.917.865s.33.863.917.863h.686c.102 0 .151.05.151.154v6.841c0 2.543.916 3.586 3.411 3.586h.252c.765 0 1.145-.407 1.145-.992s-.38-.992-1.043-.992c-1.295 0-1.626-.38-1.626-1.678v-6.765c-.002-.102.049-.153.15-.153zM85.313 8.661c-2.368 0-4.147 1.197-4.808 3.282-.28.84-.409 1.68-.409 3.08 0 1.422.129 2.262.409 3.102.66 2.06 2.439 3.282 4.808 3.282 2.363 0 4.144-1.223 4.807-3.282.278-.84.406-1.68.406-3.102 0-1.4-.128-2.24-.406-3.08-.663-2.085-2.443-3.282-4.807-3.282zm2.746 8.853c-.407 1.22-1.398 1.908-2.745 1.908-1.349 0-2.343-.688-2.748-1.908-.204-.662-.281-1.322-.281-2.491 0-1.171.077-1.807.281-2.47.405-1.22 1.399-1.908 2.748-1.908 1.347 0 2.338.688 2.745 1.908.205.663.281 1.298.281 2.47 0 1.168-.076 1.829-.281 2.491zM97.139 10.645c1.094 0 1.757.407 2.315 1.017.278.306.56.511.941.511.533 0 .94-.407.94-.941 0-.281-.101-.511-.306-.79-.761-.992-2.059-1.781-3.892-1.781-2.339 0-4.119 1.171-4.807 3.282-.228.739-.382 1.73-.382 3.08 0 1.371.154 2.363.382 3.102.688 2.11 2.468 3.282 4.807 3.282 1.833 0 3.131-.789 3.892-1.781.205-.281.306-.51.306-.79 0-.534-.407-.941-.94-.941-.382 0-.663.205-.941.512-.559.609-1.222 1.017-2.315 1.017-1.322 0-2.314-.638-2.722-1.908-.203-.637-.279-1.398-.279-2.491 0-1.07.076-1.833.279-2.47.407-1.273 1.399-1.91 2.722-1.91z"/><path fill="#1072BA" d="M6.583 10.729h-3.359v-3.448l-3.066 3.448v12.853c0 .62.169 1.053.878 1.053h5.489000000000001c.563 0 .935-.3.935-.876v-12.095c-.001-.563-.301-.935-.877-.935zM7.459 3.212h3.654l-3.654-3.064h-6.427c-.575 0-.875.372-.875.935v5.323c0 .576.374.875.935.875h5.432c.563 0 .935-.299.935-.875v-3.194zM17.377.148h-5.392c-.577 0-.876.372-.876.935v1.323h.007l-.003 4c0 .576.372.875.935.875h3.138v3.448l3.066-3.448v-6.198c.001-.563-.298-.935-.875-.935zM17.377 10.729h-5.392c-.577 0-.876.371-.876.935v1.323l.007 14.865 3.063-3.218h3.233l.013-.007c.5-.039.827-.331.827-.869v-12.095c.001-.562-.298-.934-.875-.934z"/></svg>